<svg width="257" height="161" viewBox="0 0 257 161" fill="none" xmlns="http://www.w3.org/2000/svg">
<path d="M171.13 64.3C171.13 64.7267 171.03 65.1167 170.83 65.47C170.637 65.8167 170.34 66.0967 169.94 66.31C169.547 66.5167 169.063 66.62 168.49 66.62H167.52V69H165.56V61.95H168.49C169.057 61.95 169.537 62.05 169.93 62.25C170.33 62.45 170.63 62.7267 170.83 63.08C171.03 63.4333 171.13 63.84 171.13 64.3ZM168.3 65.06C168.853 65.06 169.13 64.8067 169.13 64.3C169.13 63.7867 168.853 63.53 168.3 63.53H167.52V65.06H168.3ZM184.177 63.52V64.67H186.427V66.16H184.177V67.43H186.727V69H182.217V61.95H186.727V63.52H184.177ZM204.526 69H202.566L199.956 65.06V69H197.996V61.95H199.956L202.566 65.94V61.95H204.526V69ZM220.402 67.85H217.902L217.522 69H215.462L218.032 61.95H220.292L222.852 69H220.782L220.402 67.85ZM219.912 66.35L219.152 64.07L218.402 66.35H219.912ZM235.751 67.5H237.941V69H233.791V61.95H235.751V67.5ZM165.32 80.46C165.32 79.7667 165.463 79.15 165.75 78.61C166.043 78.0633 166.457 77.64 166.99 77.34C167.523 77.0333 168.137 76.88 168.83 76.88C169.71 76.88 170.45 77.1167 171.05 77.59C171.65 78.0567 172.037 78.6933 172.21 79.5H170.1C169.973 79.2333 169.797 79.03 169.57 78.89C169.35 78.75 169.093 78.68 168.8 78.68C168.347 78.68 167.983 78.8433 167.71 79.17C167.443 79.49 167.31 79.92 167.31 80.46C167.31 81.0067 167.443 81.4433 167.71 81.77C167.983 82.09 168.347 82.25 168.8 82.25C169.093 82.25 169.35 82.18 169.57 82.04C169.797 81.9 169.973 81.6967 170.1 81.43H172.21C172.037 82.2367 171.65 82.8767 171.05 83.35C170.45 83.8167 169.71 84.05 168.83 84.05C168.137 84.05 167.523 83.9 166.99 83.6C166.457 83.2933 166.043 82.87 165.75 82.33C165.463 81.7833 165.32 81.16 165.32 80.46ZM186.818 84.07C186.158 84.07 185.551 83.9167 184.998 83.61C184.445 83.2967 184.005 82.8667 183.678 82.32C183.358 81.7667 183.198 81.1433 183.198 80.45C183.198 79.7567 183.358 79.1367 183.678 78.59C184.005 78.0367 184.445 77.6067 184.998 77.3C185.551 76.9933 186.158 76.84 186.818 76.84C187.485 76.84 188.091 76.9933 188.638 77.3C189.191 77.6067 189.628 78.0367 189.948 78.59C190.268 79.1367 190.428 79.7567 190.428 80.45C190.428 81.1433 190.268 81.7667 189.948 82.32C189.628 82.8667 189.191 83.2967 188.638 83.61C188.085 83.9167 187.478 84.07 186.818 84.07ZM186.818 82.25C187.318 82.25 187.711 82.0867 187.998 81.76C188.291 81.4333 188.438 80.9967 188.438 80.45C188.438 79.89 188.291 79.45 187.998 79.13C187.711 78.8033 187.318 78.64 186.818 78.64C186.311 78.64 185.915 78.8033 185.628 79.13C185.341 79.45 185.198 79.89 185.198 80.45C185.198 81.0033 185.341 81.4433 185.628 81.77C185.915 82.09 186.311 82.25 186.818 82.25ZM204.399 76.95C205.139 76.95 205.786 77.1 206.339 77.4C206.899 77.6933 207.329 78.1067 207.629 78.64C207.929 79.1733 208.079 79.7833 208.079 80.47C208.079 81.15 207.926 81.7567 207.619 82.29C207.319 82.8233 206.889 83.2433 206.329 83.55C205.776 83.85 205.133 84 204.399 84H201.609V76.95H204.399ZM204.249 82.27C204.823 82.27 205.273 82.1133 205.599 81.8C205.926 81.4867 206.089 81.0433 206.089 80.47C206.089 79.89 205.926 79.4433 205.599 79.13C205.273 78.81 204.823 78.65 204.249 78.65H203.569V82.27H204.249ZM221.223 78.52V79.67H223.473V81.16H221.223V82.43H223.773V84H219.263V76.95H223.773V78.52H221.223ZM168.22 99.07C167.4 99.07 166.727 98.8767 166.2 98.49C165.673 98.0967 165.39 97.5367 165.35 96.81H167.44C167.46 97.0567 167.533 97.2367 167.66 97.35C167.787 97.4633 167.95 97.52 168.15 97.52C168.33 97.52 168.477 97.4767 168.59 97.39C168.71 97.2967 168.77 97.17 168.77 97.01C168.77 96.8033 168.673 96.6433 168.48 96.53C168.287 96.4167 167.973 96.29 167.54 96.15C167.08 95.9967 166.707 95.85 166.42 95.71C166.14 95.5633 165.893 95.3533 165.68 95.08C165.473 94.8 165.37 94.4367 165.37 93.99C165.37 93.5367 165.483 93.15 165.71 92.83C165.937 92.5033 166.25 92.2567 166.65 92.09C167.05 91.9233 167.503 91.84 168.01 91.84C168.83 91.84 169.483 92.0333 169.97 92.42C170.463 92.8 170.727 93.3367 170.76 94.03H168.63C168.623 93.8167 168.557 93.6567 168.43 93.55C168.31 93.4433 168.153 93.39 167.96 93.39C167.813 93.39 167.693 93.4333 167.6 93.52C167.507 93.6067 167.46 93.73 167.46 93.89C167.46 94.0233 167.51 94.14 167.61 94.24C167.717 94.3333 167.847 94.4167 168 94.49C168.153 94.5567 168.38 94.6433 168.68 94.75C169.127 94.9033 169.493 95.0567 169.78 95.21C170.073 95.3567 170.323 95.5667 170.53 95.84C170.743 96.1067 170.85 96.4467 170.85 96.86C170.85 97.28 170.743 97.6567 170.53 97.99C170.323 98.3233 170.02 98.5867 169.62 98.78C169.227 98.9733 168.76 99.07 168.22 99.07ZM188.471 91.95L185.991 96.76V99H184.021V96.76L181.541 91.95H183.781L185.021 94.67L186.261 91.95H188.471ZM202.033 99.07C201.213 99.07 200.54 98.8767 200.013 98.49C199.486 98.0967 199.203 97.5367 199.163 96.81H201.253C201.273 97.0567 201.346 97.2367 201.473 97.35C201.6 97.4633 201.763 97.52 201.963 97.52C202.143 97.52 202.29 97.4767 202.403 97.39C202.523 97.2967 202.583 97.17 202.583 97.01C202.583 96.8033 202.486 96.6433 202.293 96.53C202.1 96.4167 201.786 96.29 201.353 96.15C200.893 95.9967 200.52 95.85 200.233 95.71C199.953 95.5633 199.706 95.3533 199.493 95.08C199.286 94.8 199.183 94.4367 199.183 93.99C199.183 93.5367 199.296 93.15 199.523 92.83C199.75 92.5033 200.063 92.2567 200.463 92.09C200.863 91.9233 201.316 91.84 201.823 91.84C202.643 91.84 203.296 92.0333 203.783 92.42C204.276 92.8 204.54 93.3367 204.573 94.03H202.443C202.436 93.8167 202.37 93.6567 202.243 93.55C202.123 93.4433 201.966 93.39 201.773 93.39C201.626 93.39 201.506 93.4333 201.413 93.52C201.32 93.6067 201.273 93.73 201.273 93.89C201.273 94.0233 201.323 94.14 201.423 94.24C201.53 94.3333 201.66 94.4167 201.813 94.49C201.966 94.5567 202.193 94.6433 202.493 94.75C202.94 94.9033 203.306 95.0567 203.593 95.21C203.886 95.3567 204.136 95.5667 204.343 95.84C204.556 96.1067 204.663 96.4467 204.663 96.86C204.663 97.28 204.556 97.6567 204.343 97.99C204.136 98.3233 203.833 98.5867 203.433 98.78C203.04 98.9733 202.573 99.07 202.033 99.07ZM221.184 91.95V93.51H219.304V99H217.344V93.51H215.484V91.95H221.184ZM234.169 93.52V94.67H236.419V96.16H234.169V97.43H236.719V99H232.209V91.95H236.719V93.52H234.169ZM256.218 91.95V99H254.258V95.11L252.928 99H251.288L249.948 95.08V99H247.988V91.95H250.358L252.128 96.53L253.858 91.95H256.218Z" fill="#252525"/>
<path d="M53.666 35.9462H72.9048V36.4525L68.3483 41.009V119.989L60.2477 128.09H91.131V142.772L87.0807 146.822H45.0592V146.316L49.6158 141.759V39.9964L53.666 35.9462Z" fill="#F9B036"/>
<path fill-rule="evenodd" clip-rule="evenodd" d="M0 146.822L4.05027 142.266V40.7559L8.60682 36.1993H49.8689L45.5655 40.5028V142.266L41.5153 146.316L41.009 146.822H22.7828L27.0862 142.266V87.8403L23.289 91.3843V142.266L18.9856 146.822H0ZM22.7828 72.9049V54.6787H27.0862V68.6015L22.7828 72.9049Z" fill="#F9B036"/>
<path fill-rule="evenodd" clip-rule="evenodd" d="M91.131 147.075L95.1813 142.519V41.0091L99.7378 36.4525H141L136.697 40.7559V142.519L132.646 146.569L132.14 147.075H113.914L118.217 142.519V91.3843L114.167 87.334L114.42 142.519L110.117 147.075H91.131ZM113.914 67.8421V54.9319H118.217V73.1581L113.914 67.8421Z" fill="#F9B036"/>
<path d="M4.05027 27.3393L0 31.3895V32.4021H79.9928L72.3986 39.9964V118.977L67.842 124.039H87.0808L91.1311 119.989V41.0089L99.7379 32.4021H132.14L136.697 27.8456V18.2262L140.747 14.1759V13.1633H8.60682L4.05027 17.7199V27.3393Z" fill="#F9B036"/>
<path d="M38.7044 5.49086C38.7044 4.99943 38.8059 4.56233 39.0091 4.17958C39.2171 3.79211 39.51 3.49205 39.888 3.27941C40.2661 3.06205 40.7008 2.95336 41.1922 2.95336C41.816 2.95336 42.3405 3.12111 42.7658 3.45661C43.191 3.78738 43.4651 4.23865 43.588 4.81041H42.0924C42.0026 4.6214 41.8774 4.47728 41.7167 4.37805C41.5608 4.27882 41.3789 4.2292 41.171 4.2292C40.8496 4.2292 40.5921 4.34497 40.3984 4.57651C40.2094 4.80332 40.1149 5.10811 40.1149 5.49086C40.1149 5.87833 40.2094 6.18784 40.3984 6.41938C40.5921 6.6462 40.8496 6.7596 41.171 6.7596C41.3789 6.7596 41.5608 6.70999 41.7167 6.61076C41.8774 6.51153 42.0026 6.3674 42.0924 6.17839H43.588C43.4651 6.75015 43.191 7.20378 42.7658 7.53928C42.3405 7.87005 41.816 8.03544 41.1922 8.03544C40.7008 8.03544 40.2661 7.92912 39.888 7.71648C39.51 7.49912 39.2171 7.19906 39.0091 6.81631C38.8059 6.42883 38.7044 5.98702 38.7044 5.49086ZM52.9357 3.00298V8H51.5464V3.00298H52.9357ZM63.005 3.00298C63.5295 3.00298 63.9878 3.1093 64.38 3.32194C64.777 3.52985 65.0817 3.82282 65.2944 4.20085C65.507 4.57887 65.6133 5.01124 65.6133 5.49795C65.6133 5.97993 65.5047 6.40993 65.2873 6.78796C65.0747 7.16598 64.7699 7.46368 64.3729 7.68104C63.9807 7.89368 63.5248 8 63.005 8H61.0274V3.00298H63.005ZM62.8986 6.77378C63.305 6.77378 63.624 6.66274 63.8555 6.44065C64.0871 6.21856 64.2028 5.90432 64.2028 5.49795C64.2028 5.08684 64.0871 4.77025 63.8555 4.54816C63.624 4.32134 63.305 4.20794 62.8986 4.20794H62.4167V6.77378H62.8986ZM76.7014 7.18488H74.9294L74.6601 8H73.2L75.0216 3.00298H76.6235L78.438 8H76.9708L76.7014 7.18488ZM76.3541 6.12169L75.8154 4.50563L75.2838 6.12169H76.3541ZM88.1689 3.00298C88.6934 3.00298 89.1518 3.1093 89.544 3.32194C89.9409 3.52985 90.2457 3.82282 90.4583 4.20085C90.671 4.57887 90.7773 5.01124 90.7773 5.49795C90.7773 5.97993 90.6686 6.40993 90.4513 6.78796C90.2386 7.16598 89.9338 7.46368 89.5369 7.68104C89.1447 7.89368 88.6887 8 88.1689 8H86.1914V3.00298H88.1689ZM88.0626 6.77378C88.469 6.77378 88.7879 6.66274 89.0195 6.44065C89.251 6.21856 89.3668 5.90432 89.3668 5.49795C89.3668 5.08684 89.251 4.77025 89.0195 4.54816C88.7879 4.32134 88.469 4.20794 88.0626 4.20794H87.5806V6.77378H88.0626ZM100.093 4.11579V4.93091H101.688V5.98702H100.093V6.88719H101.901V8H98.7041V3.00298H101.901V4.11579H100.093Z" fill="#F9B036"/>
<path d="M27.1996 153.976V154.791H28.7944V155.847H27.1996V156.747H29.007V157.86H25.8104V152.863H29.007V153.976H27.1996ZM38.8795 157.91C38.2983 157.91 37.821 157.773 37.4477 157.498C37.0744 157.22 36.8736 156.823 36.8453 156.308H38.3267C38.3408 156.483 38.3928 156.61 38.4826 156.69C38.5724 156.771 38.6881 156.811 38.8299 156.811C38.9575 156.811 39.0614 156.78 39.1418 156.719C39.2268 156.653 39.2694 156.563 39.2694 156.449C39.2694 156.303 39.2008 156.19 39.0638 156.109C38.9268 156.029 38.7047 155.939 38.3975 155.84C38.0715 155.731 37.8069 155.627 37.6037 155.528C37.4052 155.424 37.2304 155.275 37.0792 155.082C36.9327 154.883 36.8594 154.626 36.8594 154.309C36.8594 153.988 36.9398 153.714 37.1004 153.487C37.2611 153.255 37.4832 153.08 37.7667 152.962C38.0502 152.844 38.3715 152.785 38.7307 152.785C39.3119 152.785 39.775 152.922 40.1199 153.196C40.4696 153.465 40.6562 153.846 40.6799 154.337H39.1701C39.1654 154.186 39.1181 154.073 39.0284 153.997C38.9433 153.921 38.8323 153.884 38.6952 153.884C38.5913 153.884 38.5062 153.914 38.4401 153.976C38.3739 154.037 38.3408 154.125 38.3408 154.238C38.3408 154.333 38.3763 154.415 38.4472 154.486C38.5228 154.552 38.6149 154.611 38.7236 154.663C38.8323 154.711 38.9929 154.772 39.2056 154.848C39.5222 154.956 39.7821 155.065 39.9852 155.174C40.1932 155.278 40.3704 155.426 40.5168 155.62C40.6681 155.809 40.7437 156.05 40.7437 156.343C40.7437 156.641 40.6681 156.908 40.5168 157.144C40.3704 157.38 40.1554 157.567 39.8718 157.704C39.593 157.841 39.2623 157.91 38.8795 157.91ZM52.4538 152.863V153.969H51.1213V157.86H49.732V153.969H48.4137V152.863H52.4538ZM60.9418 157.917C60.6961 157.917 60.4976 157.851 60.3464 157.718C60.1999 157.581 60.1267 157.409 60.1267 157.201C60.1267 156.993 60.1999 156.82 60.3464 156.683C60.4976 156.546 60.6961 156.478 60.9418 156.478C61.1828 156.478 61.3765 156.546 61.523 156.683C61.6742 156.82 61.7498 156.993 61.7498 157.201C61.7498 157.404 61.6742 157.574 61.523 157.711C61.3765 157.848 61.1828 157.917 60.9418 157.917ZM78.1952 156.747C78.6536 156.388 79.0292 156.079 79.3222 155.819C79.6152 155.559 79.8609 155.292 80.0594 155.018C80.2578 154.739 80.3571 154.474 80.3571 154.224C80.3571 154.073 80.3216 153.955 80.2507 153.869C80.1846 153.784 80.0853 153.742 79.953 153.742C79.816 153.742 79.7097 153.801 79.6341 153.919C79.5585 154.032 79.523 154.2 79.5278 154.422H78.181C78.1952 154.002 78.2874 153.654 78.4575 153.38C78.6276 153.102 78.8497 152.898 79.1237 152.771C79.3978 152.639 79.7026 152.572 80.0381 152.572C80.6193 152.572 81.0517 152.716 81.3352 153.005C81.6187 153.293 81.7605 153.666 81.7605 154.125C81.7605 154.616 81.5951 155.077 81.2643 155.507C80.9383 155.937 80.5295 156.322 80.0381 156.662H81.8101V157.789H78.1952V156.747ZM89.5738 155.195C89.5738 154.382 89.7392 153.742 90.07 153.274C90.4007 152.806 90.9205 152.572 91.6293 152.572C92.3381 152.572 92.8579 152.806 93.1887 153.274C93.5242 153.742 93.6919 154.382 93.6919 155.195C93.6919 156.017 93.5265 156.662 93.1958 157.13C92.865 157.598 92.3428 157.832 91.6293 157.832C90.9158 157.832 90.3936 157.598 90.0629 157.13C89.7368 156.662 89.5738 156.017 89.5738 155.195ZM92.3168 155.195C92.3168 154.77 92.272 154.446 92.1822 154.224C92.0924 153.997 91.9081 153.884 91.6293 153.884C91.3505 153.884 91.1662 153.997 91.0764 154.224C90.9867 154.446 90.9418 154.77 90.9418 155.195C90.9418 155.63 90.9843 155.96 91.0694 156.187C91.1591 156.409 91.3458 156.52 91.6293 156.52C91.9128 156.52 92.0971 156.409 92.1822 156.187C92.272 155.96 92.3168 155.63 92.3168 155.195ZM101.49 156.747C101.949 156.388 102.324 156.079 102.617 155.819C102.91 155.559 103.156 155.292 103.354 155.018C103.553 154.739 103.652 154.474 103.652 154.224C103.652 154.073 103.617 153.955 103.546 153.869C103.48 153.784 103.38 153.742 103.248 153.742C103.111 153.742 103.005 153.801 102.929 153.919C102.854 154.032 102.818 154.2 102.823 154.422H101.476C101.49 154.002 101.582 153.654 101.753 153.38C101.923 153.102 102.145 152.898 102.419 152.771C102.693 152.639 102.998 152.572 103.333 152.572C103.914 152.572 104.347 152.716 104.63 153.005C104.914 153.293 105.056 153.666 105.056 154.125C105.056 154.616 104.89 155.077 104.559 155.507C104.233 155.937 103.825 156.322 103.333 156.662H105.105V157.789H101.49V156.747ZM112.72 153.983V152.679H114.903V157.86H113.45V153.983H112.72Z" fill="#F9B036"/>
</svg>
