<svg width="124" height="78" viewBox="0 0 124 78" fill="none" xmlns="http://www.w3.org/2000/svg">
<path d="M82.5687 30.7167C82.5687 30.9225 82.5205 31.1107 82.424 31.2812C82.3307 31.4484 82.1876 31.5835 81.9946 31.6865C81.8048 31.7862 81.5716 31.836 81.295 31.836H80.827V32.9844H79.8813V29.5828H81.295C81.5684 29.5828 81.8 29.6311 81.9898 29.7276C82.1828 29.8241 82.3275 29.9576 82.424 30.128C82.5205 30.2985 82.5687 30.4947 82.5687 30.7167ZM81.2033 31.0834C81.4703 31.0834 81.6038 30.9611 81.6038 30.7167C81.6038 30.469 81.4703 30.3452 81.2033 30.3452H80.827V31.0834H81.2033ZM88.864 30.3403V30.8952H89.9496V31.6141H88.864V32.2269H90.0944V32.9844H87.9183V29.5828H90.0944V30.3403H88.864ZM98.682 32.9844H97.7363L96.477 31.0834V32.9844H95.5313V29.5828H96.477L97.7363 31.508V29.5828H98.682V32.9844ZM106.342 32.4295H105.136L104.953 32.9844H103.959L105.199 29.5828H106.289L107.524 32.9844H106.526L106.342 32.4295ZM106.106 31.7058L105.739 30.6057L105.377 31.7058H106.106ZM113.748 32.2606H114.805V32.9844H112.802V29.5828H113.748V32.2606ZM79.7655 38.2764C79.7655 37.9418 79.8346 37.6443 79.973 37.3838C80.1145 37.12 80.3139 36.9157 80.5712 36.771C80.8286 36.623 81.1245 36.549 81.459 36.549C81.8836 36.549 82.2407 36.6632 82.5302 36.8916C82.8196 37.1168 83.0062 37.424 83.0898 37.8132H82.0718C82.0107 37.6845 81.9254 37.5864 81.8161 37.5188C81.7099 37.4513 81.5861 37.4175 81.4445 37.4175C81.2258 37.4175 81.0505 37.4963 80.9186 37.6539C80.79 37.8083 80.7256 38.0158 80.7256 38.2764C80.7256 38.5401 80.79 38.7508 80.9186 38.9084C81.0505 39.0628 81.2258 39.14 81.4445 39.14C81.5861 39.14 81.7099 39.1062 81.8161 39.0387C81.9254 38.9711 82.0107 38.873 82.0718 38.7444H83.0898C83.0062 39.1336 82.8196 39.4424 82.5302 39.6708C82.2407 39.8959 81.8836 40.0085 81.459 40.0085C81.1245 40.0085 80.8286 39.9361 80.5712 39.7914C80.3139 39.6434 80.1145 39.4392 79.973 39.1786C79.8346 38.9149 79.7655 38.6141 79.7655 38.2764ZM90.1381 40.0181C89.8197 40.0181 89.527 39.9442 89.26 39.7962C88.993 39.645 88.7807 39.4376 88.6231 39.1738C88.4687 38.9068 88.3915 38.6061 88.3915 38.2715C88.3915 37.937 88.4687 37.6379 88.6231 37.3741C88.7807 37.1071 88.993 36.8997 89.26 36.7517C89.527 36.6037 89.8197 36.5297 90.1381 36.5297C90.4598 36.5297 90.7525 36.6037 91.0162 36.7517C91.2832 36.8997 91.4939 37.1071 91.6483 37.3741C91.8027 37.6379 91.8799 37.937 91.8799 38.2715C91.8799 38.6061 91.8027 38.9068 91.6483 39.1738C91.4939 39.4376 91.2832 39.645 91.0162 39.7962C90.7493 39.9442 90.4566 40.0181 90.1381 40.0181ZM90.1381 39.14C90.3794 39.14 90.5691 39.0612 90.7075 38.9036C90.849 38.746 90.9198 38.5353 90.9198 38.2715C90.9198 38.0013 90.849 37.789 90.7075 37.6346C90.5691 37.477 90.3794 37.3982 90.1381 37.3982C89.8937 37.3982 89.7023 37.477 89.564 37.6346C89.4256 37.789 89.3565 38.0013 89.3565 38.2715C89.3565 38.5385 89.4256 38.7508 89.564 38.9084C89.7023 39.0628 89.8937 39.14 90.1381 39.14ZM98.6208 36.5828C98.9779 36.5828 99.2899 36.6552 99.5569 36.7999C99.827 36.9415 100.035 37.1409 100.179 37.3982C100.324 37.6556 100.396 37.9499 100.396 38.2812C100.396 38.6093 100.322 38.902 100.174 39.1593C100.03 39.4166 99.8222 39.6193 99.552 39.7673C99.2851 39.912 98.9746 39.9844 98.6208 39.9844H97.2747V36.5828H98.6208ZM98.5484 39.1497C98.8251 39.1497 99.0422 39.0741 99.1998 38.9229C99.3574 38.7717 99.4362 38.5578 99.4362 38.2812C99.4362 38.0013 99.3574 37.7858 99.1998 37.6346C99.0422 37.4803 98.8251 37.4031 98.5484 37.4031H98.2204V39.1497H98.5484ZM106.738 37.3403V37.8952H107.824V38.6141H106.738V39.2269H107.968V39.9844H105.792V36.5828H107.968V37.3403H106.738ZM81.1647 47.0181C80.7691 47.0181 80.4442 46.9249 80.1901 46.7383C79.936 46.5485 79.7993 46.2783 79.78 45.9277H80.7884C80.798 46.0467 80.8334 46.1336 80.8945 46.1883C80.9556 46.2429 81.0344 46.2703 81.1309 46.2703C81.2178 46.2703 81.2885 46.2494 81.3432 46.2076C81.4011 46.1625 81.4301 46.1014 81.4301 46.0242C81.4301 45.9245 81.3834 45.8473 81.2902 45.7926C81.1969 45.7379 81.0457 45.6768 80.8366 45.6093C80.6147 45.5353 80.4345 45.4645 80.2962 45.397C80.1611 45.3262 80.0421 45.2249 79.9392 45.093C79.8395 44.9579 79.7896 44.7826 79.7896 44.5671C79.7896 44.3484 79.8443 44.1618 79.9537 44.0074C80.063 43.8498 80.2142 43.7308 80.4072 43.6504C80.6002 43.57 80.8189 43.5297 81.0634 43.5297C81.459 43.5297 81.7742 43.623 82.0091 43.8096C82.2471 43.9929 82.3741 44.2519 82.3902 44.5864H81.3625C81.3593 44.4835 81.3271 44.4063 81.266 44.3548C81.2081 44.3033 81.1325 44.2776 81.0393 44.2776C80.9685 44.2776 80.9106 44.2985 80.8656 44.3403C80.8205 44.3821 80.798 44.4417 80.798 44.5188C80.798 44.5832 80.8221 44.6395 80.8704 44.6877C80.9218 44.7328 80.9846 44.773 81.0586 44.8083C81.1325 44.8405 81.2419 44.8823 81.3866 44.9338C81.6022 45.0078 81.7791 45.0818 81.9174 45.1557C82.0589 45.2265 82.1795 45.3278 82.2793 45.4597C82.3822 45.5884 82.4337 45.7524 82.4337 45.9518C82.4337 46.1545 82.3822 46.3362 82.2793 46.4971C82.1795 46.6579 82.0332 46.7849 81.8402 46.8782C81.6504 46.9715 81.4252 47.0181 81.1647 47.0181ZM90.9357 43.5828L89.7391 45.9036V46.9844H88.7886V45.9036L87.592 43.5828H88.6728L89.2711 44.8952L89.8694 43.5828H90.9357ZM97.4791 47.0181C97.0835 47.0181 96.7586 46.9249 96.5045 46.7383C96.2504 46.5485 96.1136 46.2783 96.0943 45.9277H97.1028C97.1124 46.0467 97.1478 46.1336 97.2089 46.1883C97.27 46.2429 97.3488 46.2703 97.4453 46.2703C97.5322 46.2703 97.6029 46.2494 97.6576 46.2076C97.7155 46.1625 97.7445 46.1014 97.7445 46.0242C97.7445 45.9245 97.6978 45.8473 97.6045 45.7926C97.5113 45.7379 97.3601 45.6768 97.151 45.6093C96.9291 45.5353 96.7489 45.4645 96.6106 45.397C96.4755 45.3262 96.3565 45.2249 96.2536 45.093C96.1539 44.9579 96.104 44.7826 96.104 44.5671C96.104 44.3484 96.1587 44.1618 96.268 44.0074C96.3774 43.8498 96.5286 43.7308 96.7216 43.6504C96.9146 43.57 97.1333 43.5297 97.3778 43.5297C97.7734 43.5297 98.0886 43.623 98.3235 43.8096C98.5615 43.9929 98.6885 44.2519 98.7046 44.5864H97.6769C97.6737 44.4835 97.6415 44.4063 97.5804 44.3548C97.5225 44.3033 97.4469 44.2776 97.3536 44.2776C97.2829 44.2776 97.225 44.2985 97.1799 44.3403C97.1349 44.3821 97.1124 44.4417 97.1124 44.5188C97.1124 44.5832 97.1365 44.6395 97.1848 44.6877C97.2362 44.7328 97.299 44.773 97.3729 44.8083C97.4469 44.8405 97.5563 44.8823 97.701 44.9338C97.9166 45.0078 98.0935 45.0818 98.2318 45.1557C98.3733 45.2265 98.4939 45.3278 98.5936 45.4597C98.6966 45.5884 98.748 45.7524 98.748 45.9518C98.748 46.1545 98.6966 46.3362 98.5936 46.4971C98.4939 46.6579 98.3476 46.7849 98.1546 46.8782C97.9648 46.9715 97.7396 47.0181 97.4791 47.0181ZM106.719 43.5828V44.3355H105.812V46.9844H104.867V44.3355H103.969V43.5828H106.719ZM112.985 44.3403V44.8952H114.07V45.6141H112.985V46.2269H114.215V46.9844H112.039V43.5828H114.215V44.3403H112.985ZM123.623 43.5828V46.9844H122.677V45.1075L122.035 46.9844H121.244L120.598 45.093V46.9844H119.652V43.5828H120.795L121.649 45.7926L122.484 43.5828H123.623Z" fill="#252525"/>
<path d="M25.8932 17.3436H35.1757V17.5879L32.9772 19.7864V57.8936L29.0688 61.802H43.9697V68.8861L42.0155 70.8403H21.7405V70.596L23.939 68.3975V19.2978L25.8932 17.3436Z" fill="#252525"/>
<path fill-rule="evenodd" clip-rule="evenodd" d="M0 70.8402L1.95422 68.6417V19.6642L4.15271 17.4657H24.0613L21.9849 19.5421V68.6417L20.0307 70.5959L19.7864 70.8402H10.9925L13.0688 68.6417V42.3819L11.2367 44.0919V68.6417L9.16039 70.8402H0ZM10.9925 35.1758V26.3818H13.0688V33.0994L10.9925 35.1758Z" fill="#252525"/>
<path fill-rule="evenodd" clip-rule="evenodd" d="M43.9702 70.9625L45.9244 68.764V19.7865L48.1229 17.588H68.0315L65.9551 19.6644V68.764L64.0009 70.7182L63.7566 70.9625H54.9627L57.039 68.764V44.0921L55.0848 42.1378L55.207 68.764L53.1306 70.9625H43.9702ZM54.9627 32.7332V26.5041H57.039V35.2981L54.9627 32.7332Z" fill="#252525"/>
<path d="M1.95422 13.1908L0 15.145V15.6336H38.5958L34.9316 19.2978V57.405L32.7331 59.8477H42.0156L43.9698 57.8935V19.7863L48.1226 15.6336H63.7563L65.9548 13.4351V8.79384L67.909 6.83963V6.35107H4.15271L1.95422 8.54957V13.1908Z" fill="#252525"/>
<path d="M18.6746 2.78936C18.6746 2.55225 18.7236 2.34136 18.8217 2.15669C18.922 1.96973 19.0633 1.82496 19.2457 1.72236C19.4281 1.61749 19.6379 1.56505 19.875 1.56505C20.1759 1.56505 20.429 1.64598 20.6342 1.80786C20.8394 1.96745 20.9716 2.18519 21.0309 2.46106H20.3093C20.266 2.36986 20.2056 2.30032 20.1281 2.25244C20.0528 2.20456 19.9651 2.18063 19.8647 2.18063C19.7097 2.18063 19.5854 2.23648 19.492 2.3482C19.4008 2.45764 19.3552 2.60469 19.3552 2.78936C19.3552 2.97632 19.4008 3.12565 19.492 3.23737C19.5854 3.3468 19.7097 3.40152 19.8647 3.40152C19.9651 3.40152 20.0528 3.37758 20.1281 3.3297C20.2056 3.28183 20.266 3.21229 20.3093 3.12109H21.0309C20.9716 3.39696 20.8394 3.61583 20.6342 3.77771C20.429 3.9373 20.1759 4.0171 19.875 4.0171C19.6379 4.0171 19.4281 3.9658 19.2457 3.8632C19.0633 3.75833 18.922 3.61355 18.8217 3.42888C18.7236 3.24193 18.6746 3.02875 18.6746 2.78936ZM25.5411 1.58899V4H24.8708V1.58899H25.5411ZM30.3994 1.58899C30.6525 1.58899 30.8737 1.64028 31.0629 1.74288C31.2544 1.8432 31.4015 1.98455 31.504 2.16695C31.6066 2.34934 31.6579 2.55795 31.6579 2.79278C31.6579 3.02534 31.6055 3.23281 31.5006 3.4152C31.398 3.59759 31.251 3.74123 31.0595 3.84611C30.8702 3.9487 30.6502 4 30.3994 4H29.4453V1.58899H30.3994ZM30.3481 3.40836C30.5442 3.40836 30.6981 3.35478 30.8098 3.24763C30.9215 3.14047 30.9774 2.98886 30.9774 2.79278C30.9774 2.59443 30.9215 2.44168 30.8098 2.33452C30.6981 2.22508 30.5442 2.17037 30.3481 2.17037H30.1156V3.40836H30.3481ZM37.0078 3.60671H36.1529L36.0229 4H35.3184L36.1973 1.58899H36.9702L37.8457 4H37.1378L37.0078 3.60671ZM36.8403 3.09373L36.5803 2.314L36.3239 3.09373H36.8403ZM42.5408 1.58899C42.7939 1.58899 43.015 1.64028 43.2042 1.74288C43.3958 1.8432 43.5428 1.98455 43.6454 2.16695C43.748 2.34934 43.7993 2.55795 43.7993 2.79278C43.7993 3.02534 43.7469 3.23281 43.642 3.4152C43.5394 3.59759 43.3923 3.74123 43.2008 3.84611C43.0116 3.9487 42.7916 4 42.5408 4H41.5866V1.58899H42.5408ZM42.4895 3.40836C42.6856 3.40836 42.8395 3.35478 42.9512 3.24763C43.0629 3.14047 43.1188 2.98886 43.1188 2.79278C43.1188 2.59443 43.0629 2.44168 42.9512 2.33452C42.8395 2.22508 42.6856 2.17037 42.4895 2.17037H42.2569V3.40836H42.4895ZM48.2942 2.12591V2.51919H49.0637V3.02875H48.2942V3.46308H49.1663V4H47.6239V1.58899H49.1663V2.12591H48.2942Z" fill="#252525"/>
<path d="M13.1235 74.4318V74.8251H13.893V75.3347H13.1235V75.769H13.9956V76.3059H12.4533V73.8949H13.9956V74.4318H13.1235ZM18.759 76.3298C18.4786 76.3298 18.2483 76.2637 18.0682 76.1315C17.8881 75.997 17.7912 75.8055 17.7775 75.557H18.4922C18.4991 75.6413 18.5242 75.7029 18.5675 75.7416C18.6108 75.7804 18.6667 75.7998 18.7351 75.7998C18.7966 75.7998 18.8468 75.7849 18.8855 75.7553C18.9266 75.7234 18.9471 75.6801 18.9471 75.6254C18.9471 75.5547 18.914 75.5 18.8479 75.4612C18.7818 75.4224 18.6746 75.3791 18.5264 75.3312C18.3691 75.2788 18.2415 75.2286 18.1434 75.1808C18.0477 75.1306 17.9633 75.0588 17.8903 74.9653C17.8197 74.8696 17.7843 74.7453 17.7843 74.5925C17.7843 74.4375 17.8231 74.3053 17.9006 74.1958C17.9781 74.0841 18.0853 73.9998 18.2221 73.9428C18.3589 73.8858 18.5139 73.8573 18.6872 73.8573C18.9676 73.8573 19.191 73.9234 19.3575 74.0556C19.5262 74.1856 19.6162 74.3691 19.6276 74.6062H18.8992C18.8969 74.5333 18.8741 74.4786 18.8308 74.4421C18.7898 74.4056 18.7362 74.3874 18.6701 74.3874C18.6199 74.3874 18.5789 74.4022 18.547 74.4318C18.515 74.4615 18.4991 74.5036 18.4991 74.5584C18.4991 74.6039 18.5162 74.6438 18.5504 74.678C18.5869 74.71 18.6313 74.7385 18.6838 74.7635C18.7362 74.7863 18.8137 74.816 18.9163 74.8525C19.0691 74.9049 19.1945 74.9573 19.2925 75.0098C19.3928 75.0599 19.4783 75.1318 19.549 75.2252C19.6219 75.3164 19.6584 75.4327 19.6584 75.5741C19.6584 75.7177 19.6219 75.8465 19.549 75.9605C19.4783 76.0745 19.3746 76.1646 19.2378 76.2307C19.1033 76.2968 18.9437 76.3298 18.759 76.3298ZM25.3085 73.8949V74.4284H24.6655V76.3059H23.9952V74.4284H23.3591V73.8949H25.3085ZM29.4038 76.3333C29.2853 76.3333 29.1895 76.3013 29.1165 76.2375C29.0459 76.1714 29.0105 76.0882 29.0105 75.9879C29.0105 75.8875 29.0459 75.8043 29.1165 75.7382C29.1895 75.6721 29.2853 75.639 29.4038 75.639C29.5201 75.639 29.6136 75.6721 29.6842 75.7382C29.7572 75.8043 29.7937 75.8875 29.7937 75.9879C29.7937 76.0859 29.7572 76.168 29.6842 76.2341C29.6136 76.3002 29.5201 76.3333 29.4038 76.3333ZM37.7284 75.769C37.9496 75.5957 38.1308 75.4464 38.2722 75.321C38.4136 75.1956 38.5321 75.0668 38.6279 74.9345C38.7236 74.8 38.7715 74.6723 38.7715 74.5515C38.7715 74.4786 38.7544 74.4216 38.7202 74.3805C38.6883 74.3395 38.6404 74.319 38.5766 74.319C38.5104 74.319 38.4592 74.3475 38.4227 74.4045C38.3862 74.4592 38.3691 74.5401 38.3714 74.6473H37.7216C37.7284 74.4444 37.7729 74.2768 37.855 74.1445C37.937 74.01 38.0442 73.912 38.1764 73.8504C38.3087 73.7866 38.4557 73.7547 38.6176 73.7547C38.898 73.7547 39.1066 73.8242 39.2434 73.9633C39.3802 74.1024 39.4486 74.2825 39.4486 74.5036C39.4486 74.7407 39.3688 74.963 39.2092 75.1705C39.0519 75.378 38.8547 75.5638 38.6176 75.7279H39.4726V76.2717H37.7284V75.769ZM43.2185 75.02C43.2185 74.6279 43.2983 74.319 43.4579 74.0932C43.6175 73.8675 43.8683 73.7547 44.2103 73.7547C44.5522 73.7547 44.803 73.8675 44.9626 74.0932C45.1245 74.319 45.2054 74.6279 45.2054 75.02C45.2054 75.4167 45.1256 75.7279 44.966 75.9537C44.8065 76.1794 44.5545 76.2922 44.2103 76.2922C43.866 76.2922 43.6141 76.1794 43.4545 75.9537C43.2971 75.7279 43.2185 75.4167 43.2185 75.02ZM44.542 75.02C44.542 74.8148 44.5203 74.6587 44.477 74.5515C44.4337 74.4421 44.3448 74.3874 44.2103 74.3874C44.0757 74.3874 43.9868 74.4421 43.9435 74.5515C43.9002 74.6587 43.8785 74.8148 43.8785 75.02C43.8785 75.2298 43.899 75.3894 43.9401 75.4988C43.9834 75.606 44.0735 75.6596 44.2103 75.6596C44.347 75.6596 44.436 75.606 44.477 75.4988C44.5203 75.3894 44.542 75.2298 44.542 75.02ZM48.9681 75.769C49.1892 75.5957 49.3705 75.4464 49.5118 75.321C49.6532 75.1956 49.7717 75.0668 49.8675 74.9345C49.9633 74.8 50.0111 74.6723 50.0111 74.5515C50.0111 74.4786 49.994 74.4216 49.9598 74.3805C49.9279 74.3395 49.88 74.319 49.8162 74.319C49.7501 74.319 49.6988 74.3475 49.6623 74.4045C49.6258 74.4592 49.6087 74.5401 49.611 74.6473H48.9612C48.9681 74.4444 49.0125 74.2768 49.0946 74.1445C49.1767 74.01 49.2838 73.912 49.4161 73.8504C49.5483 73.7866 49.6954 73.7547 49.8572 73.7547C50.1377 73.7547 50.3463 73.8242 50.4831 73.9633C50.6199 74.1024 50.6883 74.2825 50.6883 74.5036C50.6883 74.7407 50.6085 74.963 50.4489 75.1705C50.2916 75.378 50.0944 75.5638 49.8572 75.7279H50.7122V76.2717H48.9681V75.769ZM54.3863 74.4352V73.806H55.4396V76.3059H54.7386V74.4352H54.3863Z" fill="#252525"/>
</svg>
